<?xml version="1.0" encoding="UTF-8"?>
<svg id="Layer_1" data-name="Layer 1" xmlns="http://www.w3.org/2000/svg" viewBox="0 0 726.08 272.66">
  <defs>
    <style>
      .cls-1 {
        fill: #f5f5eb;
      }

      .cls-2 {
        fill: #4155ff;
      }
    </style>
  </defs>
  <path class="cls-2" d="m48.21,75.91c-12.5-11.28-29.49-18.24-48.21-18.24v32.07c20.6,0,37.35,14.7,37.35,32.76h.02s0,.03,0,.04h32.07c0-44.97,40.71-81.56,90.75-81.56V8.92c-49.77,0-92.72,27.53-111.99,67Z"/>
  <g>
    <path class="cls-1" d="m83.56,136.68c0-44.41,33.99-79.01,77.18-79.01s75.95,33.08,75.95,78.09c0,3.68,0,7.66-.61,11.33h-118.83c3.98,24.81,21.13,38.89,45.02,38.89,18.38,0,32.46-9.19,40.43-22.97l28.18,15.93c-15.31,22.97-39.2,36.75-68.6,36.75-44.71,0-78.71-34.91-78.71-79.01Zm34.61-14.39h84.22c-3.06-20.52-18.99-35.22-41.96-35.22-21.13,0-37.36,13.17-42.26,35.22Z"/>
    <path class="cls-1" d="m261.49,272.66V60.73h32.46v20.21c11.03-14.7,29.4-23.28,50.84-23.28,43.49,0,76.56,34.61,76.56,79.01s-33.08,79.01-76.56,79.01c-20.52,0-37.98-7.96-49.31-21.74v78.71h-33.99Zm125.87-135.98c0-27.56-19.6-47.16-46.24-47.16s-45.94,19.6-45.94,47.16,19.29,46.86,45.94,46.86,46.24-19.6,46.24-46.86Z"/>
    <rect class="cls-1" x="443.7" y="60.73" width="33.99" height="151.9"/>
    <circle class="cls-1" cx="460.84" cy="17.75" r="17.75"/>
    <g>
      <path class="cls-1" d="m502.26,98.41v-37.09h22.15v4.52h-17.47v11.5h16.23v4.52h-16.23v12.04h17.63v4.52h-22.31Z"/>
      <path class="cls-1" d="m527.23,86.8v-14.94h4.57v14.73c0,5.05,2.85,8.06,7.26,8.06s7.26-3.01,7.26-8.06v-14.73h4.57v14.94c0,7.47-4.84,12.15-11.83,12.15s-11.83-4.68-11.83-12.15Z"/>
      <path class="cls-1" d="m555.8,98.41v-26.56h4.41v3.82c1.61-2.42,4.19-3.82,8.12-3.82h1.72v4.52h-2.15c-5.38,0-7.53,3.12-7.53,7.42v14.62h-4.57Z"/>
      <path class="cls-1" d="m570.27,85.13c0-7.74,6.13-13.82,13.87-13.82s13.87,6.07,13.87,13.82-6.13,13.82-13.87,13.82-13.87-6.07-13.87-13.82Zm23.17,0c0-5.54-3.92-9.52-9.3-9.52s-9.3,3.98-9.3,9.52,3.92,9.51,9.3,9.51,9.3-3.98,9.3-9.51Z"/>
      <path class="cls-1" d="m601.48,108.94v-37.09h4.41v4.03c2.1-2.85,5.64-4.57,9.73-4.57,7.79,0,13.55,6.07,13.55,13.82s-5.75,13.82-13.55,13.82c-3.98,0-7.42-1.67-9.57-4.41v14.41h-4.57Zm23.12-23.81c0-5.54-3.92-9.52-9.3-9.52s-9.3,3.98-9.3,9.52,3.92,9.51,9.3,9.51,9.3-3.98,9.3-9.51Z"/>
      <path class="cls-1" d="m630.92,85.13c0-7.74,5.75-13.82,13.22-13.82s13.06,5.7,13.06,13.44c0,.59,0,1.29-.11,1.94h-21.56c.59,4.95,4.14,8.06,8.92,8.06,3.71,0,6.56-1.88,8.12-4.78l3.76,2.1c-2.53,4.3-6.88,6.88-11.88,6.88-7.69,0-13.55-6.07-13.55-13.82Zm4.73-2.37h16.88c-.54-4.19-3.76-7.26-8.44-7.26-4.3,0-7.58,2.85-8.44,7.26Z"/>
      <path class="cls-1" d="m659.16,85.13c0-7.74,5.75-13.82,13.55-13.82,4.08,0,7.58,1.72,9.73,4.62v-4.09h4.41v26.56h-4.41v-4.03c-2.1,2.85-5.64,4.57-9.73,4.57-7.79,0-13.55-6.07-13.55-13.82Zm23.17,0c0-5.54-3.92-9.52-9.3-9.52s-9.3,3.98-9.3,9.52,3.92,9.51,9.3,9.51,9.3-3.98,9.3-9.51Z"/>
      <path class="cls-1" d="m692.07,98.41v-26.56h4.41v3.01c1.77-2.2,4.68-3.55,8.22-3.55,6.56,0,11.24,4.57,11.24,11.88v15.21h-4.57v-14.84c0-5-2.74-7.96-7.15-7.96s-7.58,3.12-7.58,7.96v14.84h-4.57Z"/>
      <path class="cls-1" d="m502.26,155.75v-37.09h12.53c7.36,0,12.09,5.11,12.09,12.1s-4.78,12.1-12.09,12.1h-7.85v12.9h-4.68Zm4.68-17.42h7.63c4.68,0,7.63-2.96,7.63-7.58s-2.96-7.58-7.63-7.58h-7.63v15.16Z"/>
      <path class="cls-1" d="m527.35,142.47c0-7.74,5.75-13.82,13.55-13.82,4.08,0,7.58,1.72,9.73,4.62v-4.09h4.41v26.56h-4.41v-4.03c-2.1,2.85-5.64,4.57-9.73,4.57-7.79,0-13.55-6.07-13.55-13.82Zm23.17,0c0-5.54-3.92-9.52-9.3-9.52s-9.3,3.98-9.3,9.52,3.92,9.52,9.3,9.52,9.3-3.98,9.3-9.52Z"/>
      <path class="cls-1" d="m563.87,166.29l4.19-10.48-10.86-26.61h5l8.44,21.02,8.33-21.02h4.95l-15.21,37.09h-4.84Z"/>
      <path class="cls-1" d="m586.09,155.75v-26.56h4.41v2.8c1.77-2.1,4.57-3.33,7.96-3.33,3.98,0,7.2,1.72,8.92,4.89,1.99-3.01,5.54-4.89,9.68-4.89,6.45,0,10.97,4.52,10.97,11.72v15.38h-4.57v-15c0-4.89-2.69-7.79-6.99-7.79s-7.1,3.06-7.1,7.79v15h-4.57v-15c0-4.89-2.69-7.79-6.99-7.79s-7.15,3.06-7.15,7.79v15h-4.57Z"/>
      <path class="cls-1" d="m631.18,142.47c0-7.74,5.75-13.82,13.22-13.82s13.06,5.7,13.06,13.44c0,.59,0,1.29-.11,1.94h-21.56c.59,4.95,4.14,8.06,8.92,8.06,3.71,0,6.56-1.88,8.12-4.79l3.76,2.1c-2.53,4.3-6.88,6.88-11.88,6.88-7.69,0-13.55-6.07-13.55-13.82Zm4.73-2.37h16.88c-.54-4.19-3.76-7.26-8.44-7.26-4.3,0-7.58,2.85-8.44,7.26Z"/>
      <path class="cls-1" d="m661.16,155.75v-26.56h4.41v3.01c1.77-2.2,4.68-3.55,8.22-3.55,6.56,0,11.24,4.57,11.24,11.88v15.21h-4.57v-14.84c0-5-2.74-7.96-7.15-7.96s-7.58,3.12-7.58,7.96v14.84h-4.57Z"/>
      <path class="cls-1" d="m699.36,155.75c-5.43,0-8.17-2.42-8.17-7.31v-14.94h-4.68v-4.3h3.44c.81,0,1.24-.48,1.24-1.4v-5.38h4.57v6.77h7.63v4.3h-7.63v14.51c0,2.26,1.07,3.44,3.66,3.44h3.98v4.3h-4.03Z"/>
      <path class="cls-1" d="m704.9,148.87l4.46-1.51c.75,2.8,2.8,4.84,6.45,4.84s5.7-1.29,5.7-3.71-1.94-3.23-5.7-3.87l-2.2-.38c-5.86-1.02-8.17-3.23-8.17-7.74,0-4.89,4.25-7.85,9.68-7.85s9.46,3.17,10.59,6.88l-4.46,1.56c-.65-2.31-2.63-4.35-6.13-4.35-2.96,0-5.16,1.29-5.16,3.76s1.99,3.17,5.7,3.82l2.2.38c5.86,1.02,8.22,3.39,8.22,7.79,0,4.84-4.25,7.79-10.27,7.79s-9.84-3.33-10.91-7.42Z"/>
      <path class="cls-1" d="m502.26,213.09v-37.09h4.68v37.09h-4.68Z"/>
      <path class="cls-1" d="m512.55,213.09v-26.56h4.41v3.01c1.77-2.2,4.68-3.55,8.22-3.55,6.56,0,11.24,4.57,11.24,11.88v15.21h-4.57v-14.84c0-5-2.74-7.96-7.15-7.96s-7.58,3.12-7.58,7.96v14.84h-4.57Z"/>
      <path class="cls-1" d="m540.86,178.8c0-1.61,1.18-2.79,2.8-2.79s2.79,1.18,2.79,2.79-1.18,2.8-2.79,2.8-2.8-1.18-2.8-2.8Zm.43,34.3v-26.56h4.57v26.56h-4.57Z"/>
      <path class="cls-1" d="m561.03,213.09c-5.43,0-8.17-2.42-8.17-7.31v-14.94h-4.68v-4.3h3.44c.81,0,1.24-.48,1.24-1.4v-5.38h4.57v6.77h7.63v4.3h-7.63v14.51c0,2.26,1.07,3.44,3.66,3.44h3.98v4.3h-4.03Z"/>
      <path class="cls-1" d="m567.2,178.8c0-1.61,1.18-2.79,2.8-2.79s2.79,1.18,2.79,2.79-1.18,2.8-2.79,2.8-2.8-1.18-2.8-2.8Zm.43,34.3v-26.56h4.57v26.56h-4.57Z"/>
      <path class="cls-1" d="m575.49,199.81c0-7.74,5.75-13.82,13.55-13.82,4.08,0,7.58,1.72,9.73,4.62v-4.08h4.41v26.56h-4.41v-4.03c-2.1,2.85-5.64,4.57-9.73,4.57-7.79,0-13.55-6.07-13.55-13.82Zm23.17,0c0-5.54-3.92-9.51-9.3-9.51s-9.3,3.98-9.3,9.51,3.92,9.52,9.3,9.52,9.3-3.98,9.3-9.52Z"/>
      <path class="cls-1" d="m618.4,213.09c-5.43,0-8.17-2.42-8.17-7.31v-14.94h-4.68v-4.3h3.44c.81,0,1.24-.48,1.24-1.4v-5.38h4.57v6.77h7.63v4.3h-7.63v14.51c0,2.26,1.07,3.44,3.66,3.44h3.98v4.3h-4.03Z"/>
      <path class="cls-1" d="m624.57,178.8c0-1.61,1.18-2.79,2.8-2.79s2.79,1.18,2.79,2.79-1.18,2.8-2.79,2.8-2.8-1.18-2.8-2.8Zm.43,34.3v-26.56h4.57v26.56h-4.57Z"/>
      <path class="cls-1" d="m642.5,213.09l-10.81-26.56h5l8.39,20.96,8.39-20.96h4.95l-10.86,26.56h-5.05Z"/>
      <path class="cls-1" d="m657.61,199.81c0-7.74,5.75-13.82,13.22-13.82s13.06,5.7,13.06,13.44c0,.59,0,1.29-.11,1.94h-21.56c.59,4.95,4.14,8.06,8.92,8.06,3.71,0,6.56-1.88,8.12-4.78l3.76,2.1c-2.53,4.3-6.88,6.88-11.88,6.88-7.69,0-13.55-6.07-13.55-13.82Zm4.73-2.37h16.88c-.54-4.19-3.76-7.26-8.44-7.26-4.3,0-7.58,2.85-8.44,7.26Z"/>
    </g>
  </g>
</svg>