<?xml version="1.0" encoding="UTF-8"?>
<svg id="Layer_1" data-name="Layer 1" xmlns="http://www.w3.org/2000/svg" viewBox="0 0 478.87 272.66">
  <defs>
    <style>
      .cls-1 {
        fill: #f5f5eb;
      }
    </style>
  </defs>
  <g>
    <path class="cls-1" d="m83.84,136.68c0-44.41,33.99-79.01,77.18-79.01s75.95,33.08,75.95,78.09c0,3.68,0,7.66-.61,11.33h-118.83c3.98,24.81,21.13,38.89,45.02,38.89,18.38,0,32.46-9.19,40.43-22.97l28.18,15.93c-15.31,22.97-39.2,36.75-68.6,36.75-44.71,0-78.71-34.91-78.71-79.01Zm34.61-14.39h84.22c-3.06-20.52-18.99-35.22-41.96-35.22-21.13,0-37.36,13.17-42.26,35.22Z"/>
    <path class="cls-1" d="m261.77,272.66V60.73h32.46v20.21c11.03-14.7,29.4-23.28,50.84-23.28,43.49,0,76.56,34.61,76.56,79.01s-33.08,79.01-76.56,79.01c-20.52,0-37.98-7.96-49.31-21.74v78.71h-33.99Zm125.87-135.98c0-27.56-19.6-47.16-46.24-47.16s-45.94,19.6-45.94,47.16,19.29,46.86,45.94,46.86,46.24-19.6,46.24-46.86Z"/>
    <rect class="cls-1" x="443.98" y="60.73" width="33.99" height="151.9"/>
    <circle class="cls-1" cx="461.12" cy="17.75" r="17.75"/>
  </g>
  <path class="cls-1" d="m48.4,76.09c-12.52-11.38-29.59-18.42-48.4-18.42v32.07c20.6,0,37.35,14.7,37.35,32.76h.31s0,.03,0,.04h32.07c0-44.97,40.71-81.56,90.75-81.56V8.92c-49.84,0-92.85,27.61-112.08,67.17Z"/>
</svg>